<?xml version="1.0" standalone="no"?><!DOCTYPE svg PUBLIC "-//W3C//DTD SVG 1.1//EN" "http://www.w3.org/Graphics/SVG/1.1/DTD/svg11.dtd"><svg t="1589277551323" class="icon" viewBox="0 0 1024 1024" version="1.1" xmlns="http://www.w3.org/2000/svg" p-id="879" xmlns:xlink="http://www.w3.org/1999/xlink" width="200" height="200"><defs><style type="text/css"></style></defs><path d="M512 85.3C747.3 85.3 938.7 248 938.7 448c0 37.9-7.3 75.9-22.3 114.8-75.1 213.6-327.7 300.1-486.8 334 2.6-6.5 5-13.2 7.1-20 5.3-16.8 3.4-35-5.2-50.4-8.6-15.4-23.2-26.5-40.2-30.8-180.2-45.3-306-188.3-306-347.6C85.3 248 276.7 85.3 512 85.3m0-64c-271 0-490.7 191-490.7 426.7 0 194.4 149.7 358.2 354.3 409.6-21 67-76.9 123.7-76.9 123.7S849.2 946.6 976.8 584c16.6-42.8 25.9-88.4 25.9-136.1C1002.7 212.4 783 21.3 512 21.3z" p-id="880" fill="#ffffff"></path><path d="M277.3 469.3m-64 0a64 64 0 1 0 128 0 64 64 0 1 0-128 0Z" p-id="881" fill="#ffffff"></path><path d="M512 469.3m-64 0a64 64 0 1 0 128 0 64 64 0 1 0-128 0Z" p-id="882" fill="#ffffff"></path><path d="M746.7 469.3m-64 0a64 64 0 1 0 128 0 64 64 0 1 0-128 0Z" p-id="883" fill="#ffffff"></path></svg>