<?xml version="1.0" encoding="UTF-8"?>
<svg width="57px" height="45px" viewBox="0 0 57 45" version="1.1" xmlns="http://www.w3.org/2000/svg" xmlns:xlink="http://www.w3.org/1999/xlink">
    <!-- Generator: Sketch 64 (93537) - https://sketch.com -->
    <title>形状</title>
    <desc>Created with Sketch.</desc>
    <g id="页面-1" stroke="none" stroke-width="1" fill="none" fill-rule="evenodd">
        <g id="index" transform="translate(-292.000000, -2810.000000)" fill="#FFFFFF" fill-rule="nonzero">
            <g id="运营优势" transform="translate(0.000000, 2589.000000)">
                <g id="用餐体验" transform="translate(120.000000, 183.000000)">
                    <g id="自助餐-(1)" transform="translate(172.000000, 38.000000)">
                        <path d="M27.8331859,13.2067306 C24.4923722,13.8675396 21.329874,15.1227553 18.433435,16.9374731 C15.5292181,18.7570763 13.0162797,21.0619369 10.9643006,23.7880311 C10.6440526,24.2134429 10.7293535,24.818006 11.1548296,25.1382542 C11.3285813,25.2690018 11.5320307,25.3321901 11.7339375,25.3321901 C12.0264805,25.3321901 12.3155522,25.199514 12.5050527,24.9477895 C16.3506654,19.8387331 21.9272377,16.3408166 28.2074944,15.0985857 C28.7298421,14.995286 29.0695673,14.4879801 28.9662677,13.9656325 C28.8629681,13.4432848 28.3556621,13.1034953 27.8331859,13.2067306 Z M30.1912713,13.7841028 C30.1912713,14.2672773 30.5829616,14.6589677 31.0661361,14.6589677 C31.5493106,14.6589677 31.941001,14.2672773 31.941001,13.7841028 C31.941001,13.3009283 31.5493106,12.909238 31.0661361,12.909238 C30.5829616,12.909238 30.1912713,13.3009283 30.1912713,13.7841028 Z M54.4960576,41.7858841 L54.2895869,41.7858841 C54.7152559,41.5920768 55.0535027,41.21584 55.1802649,40.7279469 C56.9032536,34.1003798 56.1818919,27.0742703 53.1491129,20.9437883 C50.353788,15.2932929 45.7726718,10.7358321 40.1595236,7.98711093 L40.3793004,7.14175108 C41.1707927,4.09701579 39.3376263,0.976043153 36.2929553,0.184550834 C35.8219681,0.0620954892 35.3381249,0 34.8547315,0 C32.2589349,0 29.9894288,1.75622207 29.3356907,4.27089597 L29.1160425,5.11606297 C28.6092508,5.08887206 28.1018164,5.07511595 27.5976602,5.07511595 C24.4734093,5.07511595 21.38567,5.58949275 18.4201932,6.60397602 C15.5038913,7.6016176 12.7814611,9.05616879 10.3284327,10.9271967 C7.85033467,12.8173161 5.71511167,15.0813583 3.98209508,17.6564564 C2.1891686,20.3205837 0.866843501,23.2611195 0.0516957418,26.3965554 C-0.0555250342,26.8090467 0.00547769037,27.2472505 0.221333379,27.6147452 C0.437189067,27.9822399 0.790220511,28.2489418 1.20271189,28.3561626 L8.13464972,30.158217 C7.06314921,31.766657 6.19233409,33.4945311 5.53821031,35.3179911 C4.79055767,37.4023035 4.34046189,39.5714669 4.1937083,41.7859484 L1.60703964,41.7859484 C0.719511429,41.7859484 3.55271368e-15,42.505446 3.55271368e-15,43.3929742 C3.55271368e-15,44.2805024 0.719511429,45 1.60703964,45 L54.4959934,45 C55.3835216,45 56.1030192,44.2805024 56.1030192,43.3929742 C56.1030192,42.505446 55.3835215,41.7858841 54.4960576,41.7858841 Z M27.5975959,8.28916744 C28.4519551,8.28916744 29.3168564,8.33358566 30.1683872,8.42113642 C30.9583368,8.50238764 31.688505,7.99501745 31.8881619,7.22685914 L32.4463141,5.07948701 C32.7318505,3.98111704 33.7222926,3.21398723 34.8547315,3.21398723 C35.0654447,3.21398723 35.2772507,3.24130666 35.4843642,3.29510986 C36.8138245,3.64068467 37.6142519,5.00357109 37.2686127,6.33309565 L36.7103963,8.48046777 C36.5108037,9.24862609 36.9017609,10.0474465 37.6307721,10.3610093 C48.480253,15.0273622 54.631112,26.854879 52.4237014,38.3508986 L3.61569323,25.6625945 C7.00195364,15.3555169 16.6438512,8.28916744 27.5975959,8.28916744 Z M52.8627409,41.7858841 L51.9086176,41.7858841 C51.9030251,41.7015474 51.8966613,41.6173393 51.8902332,41.5330668 L52.8627409,41.7858841 Z M10.1190694,30.6740722 L49.9069063,41.0174686 C49.9342899,41.2729215 49.9566598,41.5291456 49.975237,41.7858841 L6.12644603,41.7858841 C6.41243232,37.757199 7.77467593,33.9633326 10.1190694,30.6740722 Z" id="形状"></path>
                    </g>
                </g>
            </g>
        </g>
    </g>
</svg>